# MagicaVoxel @ Ephtracy

# group
o 

# material
mtllib tile_cornerroad.mtl
usemtl palette

# normals
vn -1 0 0
vn 1 0 0
vn 0 0 1
vn 0 0 -1
vn 0 -1 0
vn 0 1 0

# texcoords
vt 0.314453 0.5
vt 0.330078 0.5
vt 0.337891 0.5
vt 0.341797 0.5

# verts
v -0.8 -0.05 0.8
v -0.8 -0.05 0.7
v -0.8 -0.05 0.4
v -0.8 -0.05 -0.4
v -0.8 -0.05 -0.8
v -0.8 0.05 0.8
v -0.8 0.05 0.7
v -0.8 0.05 0.4
v -0.8 0.05 -0.4
v -0.8 0.05 -0.8
v 0.8 -0.05 0.8
v 0.8 -0.05 -0.7
v 0.8 -0.05 -0.8
v 0.8 0.05 0.8
v 0.8 0.05 -0.7
v 0.8 0.05 -0.8
v -0.8 -0.05 0.8
v -0.8 0.05 0.8
v -0.7 -0.05 0.8
v -0.7 0.05 0.8
v 0.8 -0.05 0.8
v 0.8 0.05 0.8
v -0.8 -0.05 -0.8
v -0.8 0.05 -0.8
v -0.4 -0.05 -0.8
v -0.4 0.05 -0.8
v 0.4 -0.05 -0.8
v 0.4 0.05 -0.8
v 0.7 -0.05 -0.8
v 0.7 0.05 -0.8
v 0.8 -0.05 -0.8
v 0.8 0.05 -0.8
v -0.8 -0.05 0.8
v -0.7 -0.05 0.8
v 0.8 -0.05 0.8
v -0.8 -0.05 0.7
v -0.7 -0.05 0.7
v -0.5 -0.05 0.7
v -0.4 -0.05 0.7
v 0.6 -0.05 0.7
v 0.7 -0.05 0.7
v -0.5 -0.05 0.6
v -0.4 -0.05 0.6
v -0.1 -0.05 0.6
v 0.2 -0.05 0.6
v -0.1 -0.05 0.5
v 0.2 -0.05 0.5
v 0.6 -0.05 0.5
v 0.7 -0.05 0.5
v -0.8 -0.05 0.4
v 0.2 -0.05 0.4
v 0.3 -0.05 0.4
v -0.7 -0.05 0.3
v -0.5 -0.05 0.3
v 0.2 -0.05 0.3
v 0.3 -0.05 0.3
v 0.4 -0.05 0.3
v -0.7 -0.05 0.2
v -0.5 -0.05 0.2
v 0.2 -0.05 0.1
v 0.3 -0.05 0.1
v 0.5 -0.05 0.1
v 0.6 -0.05 0.1
v 0.1 -0.05 0
v 0.2 -0.05 0
v 0.3 -0.05 0
v 0.5 -0.05 0
v 0.6 -0.05 0
v 0.7 -0.05 0
v 0.1 -0.05 -0.1
v 0.2 -0.05 -0.1
v 0.6 -0.05 -0.1
v 0.7 -0.05 -0.1
v -0.6 -0.05 -0.3
v -0.5 -0.05 -0.3
v -0.8 -0.05 -0.4
v -0.6 -0.05 -0.4
v -0.5 -0.05 -0.4
v -0.4 -0.05 -0.4
v 0.3 -0.05 -0.5
v 0.4 -0.05 -0.5
v -0.7 -0.05 -0.6
v -0.6 -0.05 -0.6
v -0.3 -0.05 -0.6
v -0.2 -0.05 -0.6
v 0.3 -0.05 -0.6
v 0.4 -0.05 -0.6
v -0.7 -0.05 -0.7
v -0.6 -0.05 -0.7
v -0.3 -0.05 -0.7
v -0.2 -0.05 -0.7
v 0.7 -0.05 -0.7
v 0.8 -0.05 -0.7
v -0.8 -0.05 -0.8
v -0.4 -0.05 -0.8
v 0.4 -0.05 -0.8
v 0.7 -0.05 -0.8
v 0.8 -0.05 -0.8
v -0.8 0.05 0.8
v -0.7 0.05 0.8
v 0.8 0.05 0.8
v -0.8 0.05 0.7
v -0.7 0.05 0.7
v -0.5 0.05 0.7
v -0.4 0.05 0.7
v 0.6 0.05 0.7
v 0.7 0.05 0.7
v -0.5 0.05 0.6
v -0.4 0.05 0.6
v -0.1 0.05 0.6
v 0.2 0.05 0.6
v -0.1 0.05 0.5
v 0.2 0.05 0.5
v 0.6 0.05 0.5
v 0.7 0.05 0.5
v -0.8 0.05 0.4
v 0.2 0.05 0.4
v 0.3 0.05 0.4
v -0.7 0.05 0.3
v -0.5 0.05 0.3
v 0.2 0.05 0.3
v 0.3 0.05 0.3
v 0.4 0.05 0.3
v -0.7 0.05 0.2
v -0.5 0.05 0.2
v 0.2 0.05 0.1
v 0.3 0.05 0.1
v 0.5 0.05 0.1
v 0.6 0.05 0.1
v 0.1 0.05 0
v 0.2 0.05 0
v 0.3 0.05 0
v 0.5 0.05 0
v 0.6 0.05 0
v 0.7 0.05 0
v 0.1 0.05 -0.1
v 0.2 0.05 -0.1
v 0.6 0.05 -0.1
v 0.7 0.05 -0.1
v -0.6 0.05 -0.3
v -0.5 0.05 -0.3
v -0.8 0.05 -0.4
v -0.6 0.05 -0.4
v -0.5 0.05 -0.4
v -0.4 0.05 -0.4
v 0.3 0.05 -0.5
v 0.4 0.05 -0.5
v -0.7 0.05 -0.6
v -0.6 0.05 -0.6
v -0.3 0.05 -0.6
v -0.2 0.05 -0.6
v 0.3 0.05 -0.6
v 0.4 0.05 -0.6
v -0.7 0.05 -0.7
v -0.6 0.05 -0.7
v -0.3 0.05 -0.7
v -0.2 0.05 -0.7
v 0.7 0.05 -0.7
v 0.8 0.05 -0.7
v -0.8 0.05 -0.8
v -0.4 0.05 -0.8
v 0.4 0.05 -0.8
v 0.7 0.05 -0.8
v 0.8 0.05 -0.8

# faces
f 6/3/1 2/3/1 1/3/1
f 7/4/1 3/4/1 2/4/1
f 7/3/1 2/3/1 6/3/1
f 8/2/1 4/2/1 3/2/1
f 8/4/1 3/4/1 7/4/1
f 9/4/1 5/4/1 4/4/1
f 9/2/1 4/2/1 8/2/1
f 10/4/1 5/4/1 9/4/1
f 11/4/2 12/4/2 14/4/2
f 12/3/2 13/3/2 15/3/2
f 14/4/2 12/4/2 15/4/2
f 15/3/2 13/3/2 16/3/2
f 19/3/3 18/3/3 17/3/3
f 20/3/3 18/3/3 19/3/3
f 21/4/3 20/4/3 19/4/3
f 22/4/3 20/4/3 21/4/3
f 23/4/4 24/4/4 25/4/4
f 25/4/4 24/4/4 26/4/4
f 25/2/4 26/2/4 27/2/4
f 27/2/4 26/2/4 28/2/4
f 27/4/4 28/4/4 29/4/4
f 29/4/4 28/4/4 30/4/4
f 29/3/4 30/3/4 31/3/4
f 31/3/4 30/3/4 32/3/4
f 36/3/5 34/3/5 33/3/5
f 37/4/5 35/4/5 34/4/5
f 37/3/5 34/3/5 36/3/5
f 38/4/5 35/4/5 37/4/5
f 39/4/5 35/4/5 38/4/5
f 40/4/5 35/4/5 39/4/5
f 41/4/5 35/4/5 40/4/5
f 42/4/5 37/4/5 36/4/5
f 42/4/5 38/4/5 37/4/5
f 42/3/5 39/3/5 38/3/5
f 43/4/5 40/4/5 39/4/5
f 43/3/5 39/3/5 42/3/5
f 44/4/5 40/4/5 43/4/5
f 45/4/5 40/4/5 44/4/5
f 46/4/5 43/4/5 42/4/5
f 46/4/5 44/4/5 43/4/5
f 46/3/5 45/3/5 44/3/5
f 47/4/5 40/4/5 45/4/5
f 47/3/5 45/3/5 46/3/5
f 48/3/5 41/3/5 40/3/5
f 48/4/5 40/4/5 47/4/5
f 49/4/5 35/4/5 41/4/5
f 49/3/5 41/3/5 48/3/5
f 50/4/5 48/4/5 47/4/5
f 50/4/5 47/4/5 46/4/5
f 50/4/5 49/4/5 48/4/5
f 50/4/5 46/4/5 42/4/5
f 50/4/5 42/4/5 36/4/5
f 51/4/5 49/4/5 50/4/5
f 52/4/5 49/4/5 51/4/5
f 53/2/5 51/2/5 50/2/5
f 54/2/5 51/2/5 53/2/5
f 55/1/5 52/1/5 51/1/5
f 55/2/5 51/2/5 54/2/5
f 56/4/5 49/4/5 52/4/5
f 56/1/5 52/1/5 55/1/5
f 57/4/5 49/4/5 56/4/5
f 58/1/5 54/1/5 53/1/5
f 58/2/5 53/2/5 50/2/5
f 59/2/5 55/2/5 54/2/5
f 59/1/5 54/1/5 58/1/5
f 59/2/5 57/2/5 56/2/5
f 59/2/5 56/2/5 55/2/5
f 60/2/5 59/2/5 58/2/5
f 60/2/5 57/2/5 59/2/5
f 61/2/5 57/2/5 60/2/5
f 62/4/5 49/4/5 57/4/5
f 63/4/5 49/4/5 62/4/5
f 64/2/5 60/2/5 58/2/5
f 65/1/5 61/1/5 60/1/5
f 65/2/5 60/2/5 64/2/5
f 66/2/5 57/2/5 61/2/5
f 66/1/5 61/1/5 65/1/5
f 67/4/5 62/4/5 57/4/5
f 67/3/5 63/3/5 62/3/5
f 68/4/5 49/4/5 63/4/5
f 68/3/5 63/3/5 67/3/5
f 69/4/5 35/4/5 49/4/5
f 69/4/5 49/4/5 68/4/5
f 70/1/5 65/1/5 64/1/5
f 70/2/5 64/2/5 58/2/5
f 71/2/5 66/2/5 65/2/5
f 71/1/5 65/1/5 70/1/5
f 72/4/5 68/4/5 67/4/5
f 72/3/5 69/3/5 68/3/5
f 73/4/5 35/4/5 69/4/5
f 73/3/5 69/3/5 72/3/5
f 74/2/5 71/2/5 70/2/5
f 74/2/5 70/2/5 58/2/5
f 75/2/5 71/2/5 74/2/5
f 76/2/5 58/2/5 50/2/5
f 76/2/5 74/2/5 58/2/5
f 77/1/5 75/1/5 74/1/5
f 77/2/5 74/2/5 76/2/5
f 78/2/5 71/2/5 75/2/5
f 78/1/5 75/1/5 77/1/5
f 79/2/5 71/2/5 78/2/5
f 80/2/5 66/2/5 71/2/5
f 80/2/5 71/2/5 79/2/5
f 80/2/5 57/2/5 66/2/5
f 81/4/5 72/4/5 67/4/5
f 81/2/5 57/2/5 80/2/5
f 81/4/5 67/4/5 57/4/5
f 81/4/5 73/4/5 72/4/5
f 82/4/5 79/4/5 78/4/5
f 82/4/5 77/4/5 76/4/5
f 82/4/5 78/4/5 77/4/5
f 83/4/5 79/4/5 82/4/5
f 84/2/5 80/2/5 79/2/5
f 85/2/5 80/2/5 84/2/5
f 86/1/5 81/1/5 80/1/5
f 86/2/5 80/2/5 85/2/5
f 87/4/5 73/4/5 81/4/5
f 87/1/5 81/1/5 86/1/5
f 88/4/5 82/4/5 76/4/5
f 88/3/5 83/3/5 82/3/5
f 89/4/5 79/4/5 83/4/5
f 89/3/5 83/3/5 88/3/5
f 90/1/5 85/1/5 84/1/5
f 90/2/5 84/2/5 79/2/5
f 91/2/5 86/2/5 85/2/5
f 91/1/5 85/1/5 90/1/5
f 91/2/5 87/2/5 86/2/5
f 92/4/5 35/4/5 73/4/5
f 92/4/5 73/4/5 87/4/5
f 93/4/5 35/4/5 92/4/5
f 94/4/5 88/4/5 76/4/5
f 94/4/5 89/4/5 88/4/5
f 95/2/5 90/2/5 79/2/5
f 95/4/5 89/4/5 94/4/5
f 95/4/5 79/4/5 89/4/5
f 95/2/5 91/2/5 90/2/5
f 96/4/5 92/4/5 87/4/5
f 96/2/5 91/2/5 95/2/5
f 96/2/5 87/2/5 91/2/5
f 97/3/5 93/3/5 92/3/5
f 97/4/5 92/4/5 96/4/5
f 98/3/5 93/3/5 97/3/5
f 99/3/6 100/3/6 102/3/6
f 100/4/6 101/4/6 103/4/6
f 102/3/6 100/3/6 103/3/6
f 103/4/6 101/4/6 104/4/6
f 104/4/6 101/4/6 105/4/6
f 105/4/6 101/4/6 106/4/6
f 106/4/6 101/4/6 107/4/6
f 102/4/6 103/4/6 108/4/6
f 103/4/6 104/4/6 108/4/6
f 104/3/6 105/3/6 108/3/6
f 105/4/6 106/4/6 109/4/6
f 108/3/6 105/3/6 109/3/6
f 109/4/6 106/4/6 110/4/6
f 110/4/6 106/4/6 111/4/6
f 108/4/6 109/4/6 112/4/6
f 109/4/6 110/4/6 112/4/6
f 110/3/6 111/3/6 112/3/6
f 111/4/6 106/4/6 113/4/6
f 112/3/6 111/3/6 113/3/6
f 106/3/6 107/3/6 114/3/6
f 113/4/6 106/4/6 114/4/6
f 107/4/6 101/4/6 115/4/6
f 114/3/6 107/3/6 115/3/6
f 113/4/6 114/4/6 116/4/6
f 112/4/6 113/4/6 116/4/6
f 114/4/6 115/4/6 116/4/6
f 108/4/6 112/4/6 116/4/6
f 102/4/6 108/4/6 116/4/6
f 116/4/6 115/4/6 117/4/6
f 117/4/6 115/4/6 118/4/6
f 116/2/6 117/2/6 119/2/6
f 119/2/6 117/2/6 120/2/6
f 117/1/6 118/1/6 121/1/6
f 120/2/6 117/2/6 121/2/6
f 118/4/6 115/4/6 122/4/6
f 121/1/6 118/1/6 122/1/6
f 122/4/6 115/4/6 123/4/6
f 119/1/6 120/1/6 124/1/6
f 116/2/6 119/2/6 124/2/6
f 120/2/6 121/2/6 125/2/6
f 124/1/6 120/1/6 125/1/6
f 122/2/6 123/2/6 125/2/6
f 121/2/6 122/2/6 125/2/6
f 124/2/6 125/2/6 126/2/6
f 125/2/6 123/2/6 126/2/6
f 126/2/6 123/2/6 127/2/6
f 123/4/6 115/4/6 128/4/6
f 128/4/6 115/4/6 129/4/6
f 124/2/6 126/2/6 130/2/6
f 126/1/6 127/1/6 131/1/6
f 130/2/6 126/2/6 131/2/6
f 127/2/6 123/2/6 132/2/6
f 131/1/6 127/1/6 132/1/6
f 123/4/6 128/4/6 133/4/6
f 128/3/6 129/3/6 133/3/6
f 129/4/6 115/4/6 134/4/6
f 133/3/6 129/3/6 134/3/6
f 115/4/6 101/4/6 135/4/6
f 134/4/6 115/4/6 135/4/6
f 130/1/6 131/1/6 136/1/6
f 124/2/6 130/2/6 136/2/6
f 131/2/6 132/2/6 137/2/6
f 136/1/6 131/1/6 137/1/6
f 133/4/6 134/4/6 138/4/6
f 134/3/6 135/3/6 138/3/6
f 135/4/6 101/4/6 139/4/6
f 138/3/6 135/3/6 139/3/6
f 136/2/6 137/2/6 140/2/6
f 124/2/6 136/2/6 140/2/6
f 140/2/6 137/2/6 141/2/6
f 116/2/6 124/2/6 142/2/6
f 124/2/6 140/2/6 142/2/6
f 140/1/6 141/1/6 143/1/6
f 142/2/6 140/2/6 143/2/6
f 141/2/6 137/2/6 144/2/6
f 143/1/6 141/1/6 144/1/6
f 144/2/6 137/2/6 145/2/6
f 137/2/6 132/2/6 146/2/6
f 145/2/6 137/2/6 146/2/6
f 132/2/6 123/2/6 146/2/6
f 133/4/6 138/4/6 147/4/6
f 146/2/6 123/2/6 147/2/6
f 123/4/6 133/4/6 147/4/6
f 138/4/6 139/4/6 147/4/6
f 144/4/6 145/4/6 148/4/6
f 142/4/6 143/4/6 148/4/6
f 143/4/6 144/4/6 148/4/6
f 148/4/6 145/4/6 149/4/6
f 145/2/6 146/2/6 150/2/6
f 150/2/6 146/2/6 151/2/6
f 146/1/6 147/1/6 152/1/6
f 151/2/6 146/2/6 152/2/6
f 147/4/6 139/4/6 153/4/6
f 152/1/6 147/1/6 153/1/6
f 142/4/6 148/4/6 154/4/6
f 148/3/6 149/3/6 154/3/6
f 149/4/6 145/4/6 155/4/6
f 154/3/6 149/3/6 155/3/6
f 150/1/6 151/1/6 156/1/6
f 145/2/6 150/2/6 156/2/6
f 151/2/6 152/2/6 157/2/6
f 156/1/6 151/1/6 157/1/6
f 152/2/6 153/2/6 157/2/6
f 139/4/6 101/4/6 158/4/6
f 153/4/6 139/4/6 158/4/6
f 158/4/6 101/4/6 159/4/6
f 142/4/6 154/4/6 160/4/6
f 154/4/6 155/4/6 160/4/6
f 145/2/6 156/2/6 161/2/6
f 160/4/6 155/4/6 161/4/6
f 155/4/6 145/4/6 161/4/6
f 156/2/6 157/2/6 161/2/6
f 153/4/6 158/4/6 162/4/6
f 161/2/6 157/2/6 162/2/6
f 157/2/6 153/2/6 162/2/6
f 158/3/6 159/3/6 163/3/6
f 162/4/6 158/4/6 163/4/6
f 163/3/6 159/3/6 164/3/6
