# MagicaVoxel @ Ephtracy

# group
o 

# material
mtllib tile_straightroad.mtl
usemtl palette

# normals
vn -1 0 0
vn 1 0 0
vn 0 0 1
vn 0 0 -1
vn 0 -1 0
vn 0 1 0

# texcoords
vt 0.314453 0.5
vt 0.330078 0.5
vt 0.337891 0.5
vt 0.341797 0.5

# verts
v -0.8 -0.05 0.8
v -0.8 -0.05 0.7
v -0.8 -0.05 0.4
v -0.8 -0.05 -0.4
v -0.8 -0.05 -0.8
v -0.8 0.05 0.8
v -0.8 0.05 0.7
v -0.8 0.05 0.4
v -0.8 0.05 -0.4
v -0.8 0.05 -0.8
v 0.8 -0.05 0.8
v 0.8 -0.05 0.4
v 0.8 -0.05 -0.4
v 0.8 -0.05 -0.7
v 0.8 -0.05 -0.8
v 0.8 0.05 0.8
v 0.8 0.05 0.4
v 0.8 0.05 -0.4
v 0.8 0.05 -0.7
v 0.8 0.05 -0.8
v -0.8 -0.05 0.8
v -0.8 0.05 0.8
v -0.7 -0.05 0.8
v -0.7 0.05 0.8
v 0.8 -0.05 0.8
v 0.8 0.05 0.8
v -0.8 -0.05 -0.8
v -0.8 0.05 -0.8
v 0.7 -0.05 -0.8
v 0.7 0.05 -0.8
v 0.8 -0.05 -0.8
v 0.8 0.05 -0.8
v -0.8 -0.05 0.8
v -0.7 -0.05 0.8
v 0.8 -0.05 0.8
v -0.8 -0.05 0.7
v -0.7 -0.05 0.7
v 0.6 -0.05 0.7
v 0.7 -0.05 0.7
v -0.1 -0.05 0.6
v 0.2 -0.05 0.6
v -0.1 -0.05 0.5
v 0.2 -0.05 0.5
v 0.6 -0.05 0.5
v 0.7 -0.05 0.5
v -0.8 -0.05 0.4
v 0.8 -0.05 0.4
v -0.7 -0.05 0.3
v -0.5 -0.05 0.3
v 0.4 -0.05 0.3
v 0.5 -0.05 0.3
v -0.7 -0.05 0.2
v -0.5 -0.05 0.2
v 0.4 -0.05 0.2
v 0.5 -0.05 0.2
v 0.6 -0.05 0.2
v -0.1 -0.05 0.1
v 0 -0.05 0.1
v 0.5 -0.05 0.1
v 0.6 -0.05 0.1
v -0.1 -0.05 -0.1
v 0 -0.05 -0.1
v 0.4 -0.05 -0.2
v 0.5 -0.05 -0.2
v -0.6 -0.05 -0.3
v -0.5 -0.05 -0.3
v 0.4 -0.05 -0.3
v 0.5 -0.05 -0.3
v -0.8 -0.05 -0.4
v -0.6 -0.05 -0.4
v -0.5 -0.05 -0.4
v 0.2 -0.05 -0.4
v 0.3 -0.05 -0.4
v 0.8 -0.05 -0.4
v -0.7 -0.05 -0.6
v -0.6 -0.05 -0.6
v 0.2 -0.05 -0.6
v 0.3 -0.05 -0.6
v -0.7 -0.05 -0.7
v -0.6 -0.05 -0.7
v 0.7 -0.05 -0.7
v 0.8 -0.05 -0.7
v -0.8 -0.05 -0.8
v 0.7 -0.05 -0.8
v 0.8 -0.05 -0.8
v -0.8 0.05 0.8
v -0.7 0.05 0.8
v 0.8 0.05 0.8
v -0.8 0.05 0.7
v -0.7 0.05 0.7
v 0.6 0.05 0.7
v 0.7 0.05 0.7
v -0.1 0.05 0.6
v 0.2 0.05 0.6
v -0.1 0.05 0.5
v 0.2 0.05 0.5
v 0.6 0.05 0.5
v 0.7 0.05 0.5
v -0.8 0.05 0.4
v 0.8 0.05 0.4
v -0.7 0.05 0.3
v -0.5 0.05 0.3
v 0.4 0.05 0.3
v 0.5 0.05 0.3
v -0.7 0.05 0.2
v -0.5 0.05 0.2
v 0.4 0.05 0.2
v 0.5 0.05 0.2
v 0.6 0.05 0.2
v -0.1 0.05 0.1
v 0 0.05 0.1
v 0.5 0.05 0.1
v 0.6 0.05 0.1
v -0.1 0.05 -0.1
v 0 0.05 -0.1
v 0.4 0.05 -0.2
v 0.5 0.05 -0.2
v -0.6 0.05 -0.3
v -0.5 0.05 -0.3
v 0.4 0.05 -0.3
v 0.5 0.05 -0.3
v -0.8 0.05 -0.4
v -0.6 0.05 -0.4
v -0.5 0.05 -0.4
v 0.2 0.05 -0.4
v 0.3 0.05 -0.4
v 0.8 0.05 -0.4
v -0.7 0.05 -0.6
v -0.6 0.05 -0.6
v 0.2 0.05 -0.6
v 0.3 0.05 -0.6
v -0.7 0.05 -0.7
v -0.6 0.05 -0.7
v 0.7 0.05 -0.7
v 0.8 0.05 -0.7
v -0.8 0.05 -0.8
v 0.7 0.05 -0.8
v 0.8 0.05 -0.8

# faces
f 6/3/1 2/3/1 1/3/1
f 7/4/1 3/4/1 2/4/1
f 7/3/1 2/3/1 6/3/1
f 8/2/1 4/2/1 3/2/1
f 8/4/1 3/4/1 7/4/1
f 9/4/1 5/4/1 4/4/1
f 9/2/1 4/2/1 8/2/1
f 10/4/1 5/4/1 9/4/1
f 11/4/2 12/4/2 16/4/2
f 12/2/2 13/2/2 17/2/2
f 16/4/2 12/4/2 17/4/2
f 13/4/2 14/4/2 18/4/2
f 17/2/2 13/2/2 18/2/2
f 14/3/2 15/3/2 19/3/2
f 18/4/2 14/4/2 19/4/2
f 19/3/2 15/3/2 20/3/2
f 23/3/3 22/3/3 21/3/3
f 24/3/3 22/3/3 23/3/3
f 25/4/3 24/4/3 23/4/3
f 26/4/3 24/4/3 25/4/3
f 27/4/4 28/4/4 29/4/4
f 29/4/4 28/4/4 30/4/4
f 29/3/4 30/3/4 31/3/4
f 31/3/4 30/3/4 32/3/4
f 36/3/5 34/3/5 33/3/5
f 37/4/5 35/4/5 34/4/5
f 37/3/5 34/3/5 36/3/5
f 38/4/5 35/4/5 37/4/5
f 39/4/5 35/4/5 38/4/5
f 40/4/5 37/4/5 36/4/5
f 40/4/5 38/4/5 37/4/5
f 41/4/5 38/4/5 40/4/5
f 42/4/5 40/4/5 36/4/5
f 42/3/5 41/3/5 40/3/5
f 43/4/5 38/4/5 41/4/5
f 43/3/5 41/3/5 42/3/5
f 44/3/5 39/3/5 38/3/5
f 44/4/5 38/4/5 43/4/5
f 45/4/5 35/4/5 39/4/5
f 45/3/5 39/3/5 44/3/5
f 46/4/5 44/4/5 43/4/5
f 46/4/5 43/4/5 42/4/5
f 46/4/5 45/4/5 44/4/5
f 46/4/5 42/4/5 36/4/5
f 47/4/5 35/4/5 45/4/5
f 47/4/5 45/4/5 46/4/5
f 48/2/5 47/2/5 46/2/5
f 49/2/5 47/2/5 48/2/5
f 50/2/5 47/2/5 49/2/5
f 51/2/5 47/2/5 50/2/5
f 52/2/5 48/2/5 46/2/5
f 52/1/5 49/1/5 48/1/5
f 53/2/5 50/2/5 49/2/5
f 53/1/5 49/1/5 52/1/5
f 54/1/5 51/1/5 50/1/5
f 54/2/5 50/2/5 53/2/5
f 55/2/5 47/2/5 51/2/5
f 55/1/5 51/1/5 54/1/5
f 56/2/5 47/2/5 55/2/5
f 57/2/5 54/2/5 53/2/5
f 57/2/5 53/2/5 52/2/5
f 57/2/5 55/2/5 54/2/5
f 58/2/5 55/2/5 57/2/5
f 59/1/5 56/1/5 55/1/5
f 59/2/5 55/2/5 58/2/5
f 60/2/5 47/2/5 56/2/5
f 60/1/5 56/1/5 59/1/5
f 61/1/5 58/1/5 57/1/5
f 61/2/5 57/2/5 52/2/5
f 62/2/5 59/2/5 58/2/5
f 62/1/5 58/1/5 61/1/5
f 62/2/5 60/2/5 59/2/5
f 63/2/5 62/2/5 61/2/5
f 63/2/5 60/2/5 62/2/5
f 64/2/5 60/2/5 63/2/5
f 65/2/5 61/2/5 52/2/5
f 65/2/5 63/2/5 61/2/5
f 66/2/5 63/2/5 65/2/5
f 67/1/5 64/1/5 63/1/5
f 67/2/5 63/2/5 66/2/5
f 68/2/5 60/2/5 64/2/5
f 68/1/5 64/1/5 67/1/5
f 69/2/5 52/2/5 46/2/5
f 69/2/5 65/2/5 52/2/5
f 70/1/5 66/1/5 65/1/5
f 70/2/5 65/2/5 69/2/5
f 71/2/5 67/2/5 66/2/5
f 71/1/5 66/1/5 70/1/5
f 71/2/5 68/2/5 67/2/5
f 72/2/5 68/2/5 71/2/5
f 73/2/5 68/2/5 72/2/5
f 74/2/5 47/2/5 60/2/5
f 74/2/5 68/2/5 73/2/5
f 74/2/5 60/2/5 68/2/5
f 75/4/5 70/4/5 69/4/5
f 75/4/5 72/4/5 71/4/5
f 75/4/5 71/4/5 70/4/5
f 76/4/5 72/4/5 75/4/5
f 77/3/5 73/3/5 72/3/5
f 77/4/5 72/4/5 76/4/5
f 78/4/5 74/4/5 73/4/5
f 78/3/5 73/3/5 77/3/5
f 79/3/5 76/3/5 75/3/5
f 79/4/5 75/4/5 69/4/5
f 80/4/5 77/4/5 76/4/5
f 80/3/5 76/3/5 79/3/5
f 80/4/5 78/4/5 77/4/5
f 81/4/5 74/4/5 78/4/5
f 81/4/5 78/4/5 80/4/5
f 82/4/5 74/4/5 81/4/5
f 83/4/5 80/4/5 79/4/5
f 83/4/5 79/4/5 69/4/5
f 83/4/5 81/4/5 80/4/5
f 84/3/5 82/3/5 81/3/5
f 84/4/5 81/4/5 83/4/5
f 85/3/5 82/3/5 84/3/5
f 86/3/6 87/3/6 89/3/6
f 87/4/6 88/4/6 90/4/6
f 89/3/6 87/3/6 90/3/6
f 90/4/6 88/4/6 91/4/6
f 91/4/6 88/4/6 92/4/6
f 89/4/6 90/4/6 93/4/6
f 90/4/6 91/4/6 93/4/6
f 93/4/6 91/4/6 94/4/6
f 89/4/6 93/4/6 95/4/6
f 93/3/6 94/3/6 95/3/6
f 94/4/6 91/4/6 96/4/6
f 95/3/6 94/3/6 96/3/6
f 91/3/6 92/3/6 97/3/6
f 96/4/6 91/4/6 97/4/6
f 92/4/6 88/4/6 98/4/6
f 97/3/6 92/3/6 98/3/6
f 96/4/6 97/4/6 99/4/6
f 95/4/6 96/4/6 99/4/6
f 97/4/6 98/4/6 99/4/6
f 89/4/6 95/4/6 99/4/6
f 98/4/6 88/4/6 100/4/6
f 99/4/6 98/4/6 100/4/6
f 99/2/6 100/2/6 101/2/6
f 101/2/6 100/2/6 102/2/6
f 102/2/6 100/2/6 103/2/6
f 103/2/6 100/2/6 104/2/6
f 99/2/6 101/2/6 105/2/6
f 101/1/6 102/1/6 105/1/6
f 102/2/6 103/2/6 106/2/6
f 105/1/6 102/1/6 106/1/6
f 103/1/6 104/1/6 107/1/6
f 106/2/6 103/2/6 107/2/6
f 104/2/6 100/2/6 108/2/6
f 107/1/6 104/1/6 108/1/6
f 108/2/6 100/2/6 109/2/6
f 106/2/6 107/2/6 110/2/6
f 105/2/6 106/2/6 110/2/6
f 107/2/6 108/2/6 110/2/6
f 110/2/6 108/2/6 111/2/6
f 108/1/6 109/1/6 112/1/6
f 111/2/6 108/2/6 112/2/6
f 109/2/6 100/2/6 113/2/6
f 112/1/6 109/1/6 113/1/6
f 110/1/6 111/1/6 114/1/6
f 105/2/6 110/2/6 114/2/6
f 111/2/6 112/2/6 115/2/6
f 114/1/6 111/1/6 115/1/6
f 112/2/6 113/2/6 115/2/6
f 114/2/6 115/2/6 116/2/6
f 115/2/6 113/2/6 116/2/6
f 116/2/6 113/2/6 117/2/6
f 105/2/6 114/2/6 118/2/6
f 114/2/6 116/2/6 118/2/6
f 118/2/6 116/2/6 119/2/6
f 116/1/6 117/1/6 120/1/6
f 119/2/6 116/2/6 120/2/6
f 117/2/6 113/2/6 121/2/6
f 120/1/6 117/1/6 121/1/6
f 99/2/6 105/2/6 122/2/6
f 105/2/6 118/2/6 122/2/6
f 118/1/6 119/1/6 123/1/6
f 122/2/6 118/2/6 123/2/6
f 119/2/6 120/2/6 124/2/6
f 123/1/6 119/1/6 124/1/6
f 120/2/6 121/2/6 124/2/6
f 124/2/6 121/2/6 125/2/6
f 125/2/6 121/2/6 126/2/6
f 113/2/6 100/2/6 127/2/6
f 126/2/6 121/2/6 127/2/6
f 121/2/6 113/2/6 127/2/6
f 122/4/6 123/4/6 128/4/6
f 124/4/6 125/4/6 128/4/6
f 123/4/6 124/4/6 128/4/6
f 128/4/6 125/4/6 129/4/6
f 125/3/6 126/3/6 130/3/6
f 129/4/6 125/4/6 130/4/6
f 126/4/6 127/4/6 131/4/6
f 130/3/6 126/3/6 131/3/6
f 128/3/6 129/3/6 132/3/6
f 122/4/6 128/4/6 132/4/6
f 129/4/6 130/4/6 133/4/6
f 132/3/6 129/3/6 133/3/6
f 130/4/6 131/4/6 133/4/6
f 131/4/6 127/4/6 134/4/6
f 133/4/6 131/4/6 134/4/6
f 134/4/6 127/4/6 135/4/6
f 132/4/6 133/4/6 136/4/6
f 122/4/6 132/4/6 136/4/6
f 133/4/6 134/4/6 136/4/6
f 134/3/6 135/3/6 137/3/6
f 136/4/6 134/4/6 137/4/6
f 137/3/6 135/3/6 138/3/6
